<svg width="332" height="218" viewBox="0 0 332 218" fill="none" xmlns="http://www.w3.org/2000/svg">
<rect width="332" height="218" rx="8" fill="white"/>
<path d="M88.98 185V174.92H90.443V179.267H95.483V174.92H96.953V185H95.483V180.646H90.443V185H88.98ZM102.202 185.21C101.446 185.21 100.791 185.04 100.235 184.699C99.6801 184.358 99.2508 183.889 98.9475 183.292C98.6488 182.69 98.4995 181.997 98.4995 181.213C98.4995 180.424 98.6535 179.731 98.9615 179.134C99.2695 178.532 99.7011 178.065 100.256 177.734C100.812 177.398 101.46 177.23 102.202 177.23C102.958 177.23 103.614 177.4 104.169 177.741C104.725 178.082 105.154 178.551 105.457 179.148C105.761 179.745 105.912 180.434 105.912 181.213C105.912 182.002 105.758 182.697 105.45 183.299C105.147 183.896 104.718 184.365 104.162 184.706C103.607 185.042 102.954 185.21 102.202 185.21ZM102.202 183.831C102.926 183.831 103.465 183.588 103.819 183.103C104.179 182.613 104.358 181.983 104.358 181.213C104.358 180.424 104.176 179.794 103.812 179.323C103.453 178.847 102.916 178.609 102.202 178.609C101.712 178.609 101.309 178.721 100.991 178.945C100.674 179.164 100.438 179.47 100.284 179.862C100.13 180.249 100.053 180.7 100.053 181.213C100.053 182.006 100.235 182.641 100.599 183.117C100.963 183.593 101.498 183.831 102.202 183.831ZM116.509 185L116.516 180.289C116.516 179.743 116.376 179.318 116.096 179.015C115.816 178.707 115.447 178.553 114.99 178.553C114.71 178.553 114.453 178.618 114.22 178.749C113.991 178.875 113.804 179.066 113.66 179.323C113.52 179.575 113.45 179.892 113.45 180.275L112.743 179.918C112.733 179.386 112.845 178.919 113.079 178.518C113.317 178.117 113.639 177.806 114.045 177.587C114.451 177.363 114.906 177.251 115.41 177.251C116.226 177.251 116.859 177.496 117.307 177.986C117.755 178.476 117.979 179.127 117.979 179.939L117.972 185H116.509ZM107.444 185V177.44H108.746V179.624H108.914V185H107.444ZM111.98 185L111.987 180.317C111.987 179.766 111.847 179.335 111.567 179.022C111.291 178.709 110.92 178.553 110.454 178.553C109.992 178.553 109.618 178.712 109.334 179.029C109.054 179.346 108.914 179.762 108.914 180.275L108.214 179.827C108.214 179.332 108.333 178.891 108.571 178.504C108.809 178.117 109.131 177.811 109.537 177.587C109.943 177.363 110.402 177.251 110.916 177.251C111.452 177.251 111.91 177.365 112.288 177.594C112.666 177.818 112.953 178.133 113.149 178.539C113.349 178.945 113.45 179.416 113.45 179.953L113.443 185H111.98ZM123.054 185.21C122.302 185.21 121.642 185.047 121.073 184.72C120.508 184.389 120.067 183.929 119.75 183.341C119.437 182.748 119.281 182.062 119.281 181.283C119.281 180.457 119.435 179.741 119.743 179.134C120.055 178.527 120.489 178.058 121.045 177.727C121.6 177.396 122.246 177.23 122.984 177.23C123.754 177.23 124.409 177.41 124.951 177.769C125.492 178.124 125.896 178.63 126.162 179.288C126.432 179.946 126.54 180.728 126.484 181.633H125.021V181.101C125.011 180.224 124.843 179.575 124.517 179.155C124.195 178.735 123.702 178.525 123.04 178.525C122.307 178.525 121.756 178.756 121.388 179.218C121.019 179.68 120.835 180.347 120.835 181.22C120.835 182.051 121.019 182.695 121.388 183.152C121.756 183.605 122.288 183.831 122.984 183.831C123.441 183.831 123.835 183.728 124.167 183.523C124.503 183.313 124.764 183.014 124.951 182.627L126.386 183.082C126.092 183.759 125.646 184.284 125.049 184.657C124.451 185.026 123.786 185.21 123.054 185.21ZM120.359 181.633V180.492H125.756V181.633H120.359ZM133.748 185.203C132.829 185.203 132.08 185 131.501 184.594C130.922 184.188 130.568 183.616 130.437 182.879L131.935 182.648C132.028 183.04 132.243 183.35 132.579 183.579C132.92 183.803 133.342 183.915 133.846 183.915C134.303 183.915 134.66 183.822 134.917 183.635C135.178 183.448 135.309 183.192 135.309 182.865C135.309 182.674 135.262 182.52 135.169 182.403C135.08 182.282 134.891 182.167 134.602 182.06C134.313 181.953 133.872 181.82 133.279 181.661C132.63 181.493 132.115 181.313 131.732 181.122C131.354 180.926 131.083 180.7 130.92 180.443C130.761 180.182 130.682 179.867 130.682 179.498C130.682 179.041 130.803 178.642 131.046 178.301C131.289 177.96 131.629 177.697 132.068 177.51C132.511 177.323 133.029 177.23 133.622 177.23C134.201 177.23 134.716 177.321 135.169 177.503C135.622 177.685 135.988 177.944 136.268 178.28C136.548 178.611 136.716 179.001 136.772 179.449L135.274 179.722C135.223 179.358 135.052 179.071 134.763 178.861C134.474 178.651 134.098 178.537 133.636 178.518C133.193 178.499 132.833 178.574 132.558 178.742C132.283 178.905 132.145 179.132 132.145 179.421C132.145 179.589 132.196 179.731 132.299 179.848C132.406 179.965 132.612 180.077 132.915 180.184C133.218 180.291 133.666 180.42 134.259 180.569C134.894 180.732 135.398 180.914 135.771 181.115C136.144 181.311 136.41 181.547 136.569 181.822C136.732 182.093 136.814 182.422 136.814 182.809C136.814 183.556 136.541 184.141 135.995 184.566C135.454 184.991 134.705 185.203 133.748 185.203ZM141.716 185.21C140.964 185.21 140.304 185.047 139.735 184.72C139.17 184.389 138.729 183.929 138.412 183.341C138.099 182.748 137.943 182.062 137.943 181.283C137.943 180.457 138.097 179.741 138.405 179.134C138.717 178.527 139.151 178.058 139.707 177.727C140.262 177.396 140.908 177.23 141.646 177.23C142.416 177.23 143.071 177.41 143.613 177.769C144.154 178.124 144.558 178.63 144.824 179.288C145.094 179.946 145.202 180.728 145.146 181.633H143.683V181.101C143.673 180.224 143.505 179.575 143.179 179.155C142.857 178.735 142.364 178.525 141.702 178.525C140.969 178.525 140.418 178.756 140.05 179.218C139.681 179.68 139.497 180.347 139.497 181.22C139.497 182.051 139.681 182.695 140.05 183.152C140.418 183.605 140.95 183.831 141.646 183.831C142.103 183.831 142.497 183.728 142.829 183.523C143.165 183.313 143.426 183.014 143.613 182.627L145.048 183.082C144.754 183.759 144.308 184.284 143.711 184.657C143.113 185.026 142.448 185.21 141.716 185.21ZM139.021 181.633V180.492H144.418V181.633H139.021ZM146.856 185V174.71H148.319V185H146.856ZM150.561 185V174.71H152.024V185H150.561ZM157.479 185.21C156.728 185.21 156.068 185.047 155.498 184.72C154.934 184.389 154.493 183.929 154.175 183.341C153.863 182.748 153.706 182.062 153.706 181.283C153.706 180.457 153.86 179.741 154.168 179.134C154.481 178.527 154.915 178.058 155.47 177.727C156.026 177.396 156.672 177.23 157.409 177.23C158.179 177.23 158.835 177.41 159.376 177.769C159.918 178.124 160.321 178.63 160.587 179.288C160.858 179.946 160.965 180.728 160.909 181.633H159.446V181.101C159.437 180.224 159.269 179.575 158.942 179.155C158.62 178.735 158.128 178.525 157.465 178.525C156.733 178.525 156.182 178.756 155.813 179.218C155.445 179.68 155.26 180.347 155.26 181.22C155.26 182.051 155.445 182.695 155.813 183.152C156.182 183.605 156.714 183.831 157.409 183.831C157.867 183.831 158.261 183.728 158.592 183.523C158.928 183.313 159.19 183.014 159.376 182.627L160.811 183.082C160.517 183.759 160.072 184.284 159.474 184.657C158.877 185.026 158.212 185.21 157.479 185.21ZM154.784 181.633V180.492H160.181V181.633H154.784ZM162.48 185V177.44H163.782V179.274L163.6 179.036C163.693 178.793 163.815 178.572 163.964 178.371C164.113 178.166 164.286 177.998 164.482 177.867C164.673 177.727 164.886 177.62 165.119 177.545C165.357 177.466 165.6 177.419 165.847 177.405C166.094 177.386 166.332 177.398 166.561 177.44V178.812C166.314 178.747 166.038 178.728 165.735 178.756C165.436 178.784 165.161 178.88 164.909 179.043C164.671 179.197 164.482 179.384 164.342 179.603C164.207 179.822 164.109 180.067 164.048 180.338C163.987 180.604 163.957 180.886 163.957 181.185V185H162.48ZM170.557 181.171V179.995H174.757V181.171H170.557ZM179.378 185V174.92H180.862L185.825 182.41V174.92H187.309V185H185.825L180.862 177.503V185H179.378ZM191.692 185V180.835L188.283 174.92H189.991L192.434 179.155L194.877 174.92H196.585L193.176 180.835V185H191.692Z" fill="#96A0B5"/>
<path d="M90.996 158.21C90.226 158.21 89.5843 158.009 89.071 157.608C88.5623 157.207 88.2053 156.665 88 155.984L89.666 155.585C89.7173 155.87 89.8667 156.115 90.114 156.32C90.3613 156.525 90.6343 156.628 90.933 156.628C91.129 156.628 91.3367 156.577 91.556 156.474C91.7753 156.367 91.9387 156.196 92.046 155.963C92.1113 155.814 92.1487 155.636 92.158 155.431C92.172 155.221 92.179 154.978 92.179 154.703V147.92H93.887V154.703C93.887 155.016 93.8847 155.291 93.88 155.529C93.88 155.762 93.8567 155.984 93.81 156.194C93.768 156.399 93.6817 156.612 93.551 156.831C93.2757 157.307 92.9163 157.657 92.473 157.881C92.0297 158.1 91.5373 158.21 90.996 158.21ZM98.1077 158.21C97.5617 158.21 97.0997 158.107 96.7217 157.902C96.3437 157.692 96.0567 157.414 95.8607 157.069C95.6693 156.724 95.5737 156.343 95.5737 155.928C95.5737 155.564 95.6343 155.237 95.7557 154.948C95.877 154.654 96.0637 154.402 96.3157 154.192C96.5677 153.977 96.8943 153.802 97.2957 153.667C97.599 153.569 97.9537 153.48 98.3597 153.401C98.7703 153.322 99.2137 153.249 99.6897 153.184C100.17 153.114 100.672 153.039 101.195 152.96L100.593 153.303C100.597 152.78 100.481 152.395 100.243 152.148C100.005 151.901 99.6033 151.777 99.0387 151.777C98.698 151.777 98.369 151.856 98.0517 152.015C97.7343 152.174 97.5127 152.447 97.3867 152.834L95.8467 152.351C96.0333 151.712 96.388 151.198 96.9107 150.811C97.438 150.424 98.1473 150.23 99.0387 150.23C99.7107 150.23 100.301 150.34 100.81 150.559C101.323 150.778 101.703 151.138 101.951 151.637C102.086 151.903 102.168 152.176 102.196 152.456C102.224 152.731 102.238 153.032 102.238 153.359V158H100.761V156.362L101.006 156.628C100.665 157.174 100.266 157.575 99.8087 157.832C99.356 158.084 98.789 158.21 98.1077 158.21ZM98.4437 156.866C98.8263 156.866 99.153 156.798 99.4237 156.663C99.6943 156.528 99.909 156.362 100.068 156.166C100.231 155.97 100.341 155.786 100.397 155.613C100.485 155.398 100.534 155.153 100.544 154.878C100.558 154.598 100.565 154.372 100.565 154.199L101.083 154.353C100.574 154.432 100.138 154.502 99.7737 154.563C99.4097 154.624 99.097 154.682 98.8357 154.738C98.5743 154.789 98.3433 154.848 98.1427 154.913C97.9467 154.983 97.781 155.065 97.6457 155.158C97.5103 155.251 97.4053 155.359 97.3307 155.48C97.2607 155.601 97.2257 155.744 97.2257 155.907C97.2257 156.094 97.2723 156.259 97.3657 156.404C97.459 156.544 97.5943 156.656 97.7717 156.74C97.9537 156.824 98.1777 156.866 98.4437 156.866ZM113.139 158V153.408C113.139 152.89 113.011 152.486 112.754 152.197C112.497 151.903 112.15 151.756 111.711 151.756C111.44 151.756 111.198 151.819 110.983 151.945C110.768 152.066 110.598 152.248 110.472 152.491C110.346 152.729 110.283 153.014 110.283 153.345L109.534 152.904C109.529 152.381 109.646 151.922 109.884 151.525C110.127 151.124 110.453 150.811 110.864 150.587C111.275 150.363 111.732 150.251 112.236 150.251C113.071 150.251 113.711 150.503 114.154 151.007C114.602 151.506 114.826 152.164 114.826 152.981V158H113.139ZM104.046 158V150.44H105.537V152.785H105.747V158H104.046ZM108.603 158V153.429C108.603 152.902 108.475 152.491 108.218 152.197C107.961 151.903 107.611 151.756 107.168 151.756C106.739 151.756 106.393 151.903 106.132 152.197C105.875 152.491 105.747 152.874 105.747 153.345L104.991 152.841C104.991 152.351 105.112 151.91 105.355 151.518C105.598 151.126 105.924 150.818 106.335 150.594C106.75 150.365 107.215 150.251 107.728 150.251C108.293 150.251 108.764 150.372 109.142 150.615C109.525 150.853 109.809 151.18 109.996 151.595C110.187 152.006 110.283 152.47 110.283 152.988V158H108.603ZM119.966 158.21C119.2 158.21 118.528 158.044 117.95 157.713C117.371 157.382 116.918 156.922 116.592 156.334C116.27 155.746 116.109 155.069 116.109 154.304C116.109 153.478 116.267 152.762 116.585 152.155C116.902 151.544 117.343 151.07 117.908 150.734C118.472 150.398 119.126 150.23 119.868 150.23C120.652 150.23 121.317 150.414 121.863 150.783C122.413 151.147 122.822 151.663 123.088 152.33C123.354 152.997 123.454 153.784 123.389 154.689H121.716V154.073C121.711 153.252 121.566 152.652 121.282 152.274C120.997 151.896 120.549 151.707 119.938 151.707C119.247 151.707 118.734 151.922 118.398 152.351C118.062 152.776 117.894 153.399 117.894 154.22C117.894 154.985 118.062 155.578 118.398 155.998C118.734 156.418 119.224 156.628 119.868 156.628C120.283 156.628 120.64 156.537 120.939 156.355C121.242 156.168 121.475 155.9 121.639 155.55L123.305 156.054C123.015 156.735 122.567 157.265 121.961 157.643C121.359 158.021 120.694 158.21 119.966 158.21ZM117.362 154.689V153.415H122.563V154.689H117.362ZM127.87 158.21C126.936 158.21 126.178 158 125.595 157.58C125.011 157.16 124.657 156.57 124.531 155.809L126.253 155.543C126.341 155.916 126.537 156.21 126.841 156.425C127.144 156.64 127.527 156.747 127.989 156.747C128.395 156.747 128.707 156.668 128.927 156.509C129.151 156.346 129.263 156.124 129.263 155.844C129.263 155.671 129.221 155.534 129.137 155.431C129.057 155.324 128.88 155.221 128.605 155.123C128.329 155.025 127.907 154.901 127.338 154.752C126.703 154.584 126.199 154.404 125.826 154.213C125.452 154.017 125.184 153.786 125.021 153.52C124.857 153.254 124.776 152.932 124.776 152.554C124.776 152.083 124.899 151.672 125.147 151.322C125.394 150.972 125.739 150.704 126.183 150.517C126.626 150.326 127.149 150.23 127.751 150.23C128.339 150.23 128.859 150.321 129.312 150.503C129.769 150.685 130.138 150.944 130.418 151.28C130.698 151.616 130.87 152.01 130.936 152.463L129.214 152.771C129.172 152.449 129.025 152.195 128.773 152.008C128.525 151.821 128.194 151.716 127.779 151.693C127.382 151.67 127.062 151.73 126.82 151.875C126.577 152.015 126.456 152.213 126.456 152.47C126.456 152.615 126.505 152.738 126.603 152.841C126.701 152.944 126.897 153.046 127.191 153.149C127.489 153.252 127.933 153.378 128.521 153.527C129.123 153.681 129.603 153.858 129.963 154.059C130.327 154.255 130.588 154.491 130.747 154.766C130.91 155.041 130.992 155.375 130.992 155.767C130.992 156.528 130.714 157.125 130.159 157.559C129.608 157.993 128.845 158.21 127.87 158.21ZM139.591 158.21C138.583 158.21 137.719 157.991 137.001 157.552C136.282 157.109 135.729 156.493 135.342 155.704C134.959 154.915 134.768 154.001 134.768 152.96C134.768 151.919 134.959 151.005 135.342 150.216C135.729 149.427 136.282 148.814 137.001 148.375C137.719 147.932 138.583 147.71 139.591 147.71C140.753 147.71 141.721 148.002 142.496 148.585C143.27 149.164 143.814 149.945 144.127 150.93L142.426 151.399C142.23 150.741 141.896 150.228 141.425 149.859C140.953 149.486 140.342 149.299 139.591 149.299C138.914 149.299 138.349 149.451 137.897 149.754C137.449 150.057 137.11 150.484 136.882 151.035C136.658 151.581 136.543 152.223 136.539 152.96C136.539 153.697 136.651 154.341 136.875 154.892C137.103 155.438 137.444 155.863 137.897 156.166C138.349 156.469 138.914 156.621 139.591 156.621C140.342 156.621 140.953 156.434 141.425 156.061C141.896 155.688 142.23 155.174 142.426 154.521L144.127 154.99C143.814 155.975 143.27 156.759 142.496 157.342C141.721 157.921 140.753 158.21 139.591 158.21ZM149.003 158.21C148.247 158.21 147.586 158.04 147.022 157.699C146.457 157.358 146.018 156.889 145.706 156.292C145.398 155.69 145.244 154.999 145.244 154.22C145.244 153.427 145.402 152.731 145.72 152.134C146.037 151.537 146.478 151.07 147.043 150.734C147.607 150.398 148.261 150.23 149.003 150.23C149.763 150.23 150.426 150.4 150.991 150.741C151.555 151.082 151.994 151.553 152.307 152.155C152.619 152.752 152.776 153.441 152.776 154.22C152.776 155.004 152.617 155.697 152.3 156.299C151.987 156.896 151.548 157.365 150.984 157.706C150.419 158.042 149.759 158.21 149.003 158.21ZM149.003 156.628C149.675 156.628 150.174 156.404 150.501 155.956C150.827 155.508 150.991 154.929 150.991 154.22C150.991 153.487 150.825 152.904 150.494 152.47C150.162 152.031 149.665 151.812 149.003 151.812C148.55 151.812 148.177 151.915 147.883 152.12C147.593 152.321 147.379 152.603 147.239 152.967C147.099 153.326 147.029 153.744 147.029 154.22C147.029 154.953 147.194 155.538 147.526 155.977C147.862 156.411 148.354 156.628 149.003 156.628ZM157.657 158.21C156.901 158.21 156.241 158.04 155.676 157.699C155.111 157.358 154.673 156.889 154.36 156.292C154.052 155.69 153.898 154.999 153.898 154.22C153.898 153.427 154.057 152.731 154.374 152.134C154.691 151.537 155.132 151.07 155.697 150.734C156.262 150.398 156.915 150.23 157.657 150.23C158.418 150.23 159.08 150.4 159.645 150.741C160.21 151.082 160.648 151.553 160.961 152.155C161.274 152.752 161.43 153.441 161.43 154.22C161.43 155.004 161.271 155.697 160.954 156.299C160.641 156.896 160.203 157.365 159.638 157.706C159.073 158.042 158.413 158.21 157.657 158.21ZM157.657 156.628C158.329 156.628 158.828 156.404 159.155 155.956C159.482 155.508 159.645 154.929 159.645 154.22C159.645 153.487 159.479 152.904 159.148 152.47C158.817 152.031 158.32 151.812 157.657 151.812C157.204 151.812 156.831 151.915 156.537 152.12C156.248 152.321 156.033 152.603 155.893 152.967C155.753 153.326 155.683 153.744 155.683 154.22C155.683 154.953 155.849 155.538 156.18 155.977C156.516 156.411 157.008 156.628 157.657 156.628ZM166.605 158.21C165.868 158.21 165.25 158.035 164.75 157.685C164.251 157.335 163.875 156.859 163.623 156.257C163.371 155.65 163.245 154.971 163.245 154.22C163.245 153.459 163.371 152.778 163.623 152.176C163.875 151.574 164.244 151.1 164.729 150.755C165.219 150.405 165.824 150.23 166.542 150.23C167.256 150.23 167.875 150.405 168.397 150.755C168.925 151.1 169.333 151.574 169.622 152.176C169.912 152.773 170.056 153.455 170.056 154.22C170.056 154.976 169.914 155.655 169.629 156.257C169.345 156.859 168.943 157.335 168.425 157.685C167.907 158.035 167.301 158.21 166.605 158.21ZM162.958 161.36V150.44H164.449V155.746H164.659V161.36H162.958ZM166.346 156.698C166.785 156.698 167.147 156.588 167.431 156.369C167.716 156.15 167.926 155.853 168.061 155.48C168.201 155.102 168.271 154.682 168.271 154.22C168.271 153.763 168.201 153.347 168.061 152.974C167.921 152.596 167.704 152.297 167.41 152.078C167.116 151.854 166.743 151.742 166.29 151.742C165.861 151.742 165.511 151.847 165.24 152.057C164.97 152.262 164.769 152.552 164.638 152.925C164.512 153.294 164.449 153.725 164.449 154.22C164.449 154.71 164.512 155.142 164.638 155.515C164.769 155.888 164.972 156.18 165.247 156.39C165.527 156.595 165.894 156.698 166.346 156.698ZM175.036 158.21C174.271 158.21 173.599 158.044 173.02 157.713C172.441 157.382 171.989 156.922 171.662 156.334C171.34 155.746 171.179 155.069 171.179 154.304C171.179 153.478 171.338 152.762 171.655 152.155C171.972 151.544 172.413 151.07 172.978 150.734C173.543 150.398 174.196 150.23 174.938 150.23C175.722 150.23 176.387 150.414 176.933 150.783C177.484 151.147 177.892 151.663 178.158 152.33C178.424 152.997 178.524 153.784 178.459 154.689H176.786V154.073C176.781 153.252 176.637 152.652 176.352 152.274C176.067 151.896 175.619 151.707 175.008 151.707C174.317 151.707 173.804 151.922 173.468 152.351C173.132 152.776 172.964 153.399 172.964 154.22C172.964 154.985 173.132 155.578 173.468 155.998C173.804 156.418 174.294 156.628 174.938 156.628C175.353 156.628 175.71 156.537 176.009 156.355C176.312 156.168 176.546 155.9 176.709 155.55L178.375 156.054C178.086 156.735 177.638 157.265 177.031 157.643C176.429 158.021 175.764 158.21 175.036 158.21ZM172.432 154.689V153.415H177.633V154.689H172.432ZM180.021 158V150.44H181.512V152.281L181.33 152.043C181.423 151.791 181.547 151.562 181.701 151.357C181.86 151.147 182.049 150.974 182.268 150.839C182.455 150.713 182.66 150.615 182.884 150.545C183.113 150.47 183.346 150.426 183.584 150.412C183.822 150.393 184.053 150.403 184.277 150.44V152.015C184.053 151.95 183.794 151.929 183.5 151.952C183.211 151.975 182.949 152.057 182.716 152.197C182.483 152.323 182.291 152.484 182.142 152.68C181.997 152.876 181.89 153.1 181.82 153.352C181.75 153.599 181.715 153.868 181.715 154.157V158H180.021Z" fill="#121F3E"/>
<circle cx="48" cy="166" r="24" fill="#F3F7F9"/>
<path d="M41.424 172.24C40.544 172.24 39.8107 172.011 39.224 171.552C38.6427 171.093 38.2347 170.475 38 169.696L39.904 169.24C39.9627 169.565 40.1333 169.845 40.416 170.08C40.6987 170.315 41.0107 170.432 41.352 170.432C41.576 170.432 41.8133 170.373 42.064 170.256C42.3147 170.133 42.5013 169.939 42.624 169.672C42.6987 169.501 42.7413 169.299 42.752 169.064C42.768 168.824 42.776 168.547 42.776 168.232V160.48H44.728V168.232C44.728 168.589 44.7253 168.904 44.72 169.176C44.72 169.443 44.6933 169.696 44.64 169.936C44.592 170.171 44.4933 170.413 44.344 170.664C44.0293 171.208 43.6187 171.608 43.112 171.864C42.6053 172.115 42.0427 172.24 41.424 172.24ZM52.0076 172.24C50.8556 172.24 49.869 171.989 49.0476 171.488C48.2263 170.981 47.5943 170.277 47.1516 169.376C46.7143 168.475 46.4956 167.429 46.4956 166.24C46.4956 165.051 46.7143 164.005 47.1516 163.104C47.5943 162.203 48.2263 161.501 49.0476 161C49.869 160.493 50.8556 160.24 52.0076 160.24C53.3356 160.24 54.4423 160.573 55.3276 161.24C56.213 161.901 56.8343 162.795 57.1916 163.92L55.2476 164.456C55.0236 163.704 54.6423 163.117 54.1036 162.696C53.565 162.269 52.8663 162.056 52.0076 162.056C51.2343 162.056 50.589 162.229 50.0716 162.576C49.5596 162.923 49.173 163.411 48.9116 164.04C48.6556 164.664 48.525 165.397 48.5196 166.24C48.5196 167.083 48.6476 167.819 48.9036 168.448C49.165 169.072 49.5543 169.557 50.0716 169.904C50.589 170.251 51.2343 170.424 52.0076 170.424C52.8663 170.424 53.565 170.211 54.1036 169.784C54.6423 169.357 55.0236 168.771 55.2476 168.024L57.1916 168.56C56.8343 169.685 56.213 170.581 55.3276 171.248C54.4423 171.909 53.3356 172.24 52.0076 172.24Z" fill="#121F3E"/>
<circle cx="292" cy="166" r="16" fill="#EBEEFA"/>
<path d="M290.5 168.379L297.394 161.484L298.455 162.545L290.5 170.5L285.727 165.727L286.787 164.667L290.5 168.379Z" fill="#3454D1"/>
<circle cx="48" cy="94" r="24" fill="#F3F7F9"/>
<path d="M42.424 100.24C41.544 100.24 40.8107 100.011 40.224 99.552C39.6427 99.0933 39.2347 98.4747 39 97.696L40.904 97.24C40.9627 97.5653 41.1333 97.8453 41.416 98.08C41.6987 98.3147 42.0107 98.432 42.352 98.432C42.576 98.432 42.8133 98.3733 43.064 98.256C43.3147 98.1333 43.5013 97.9387 43.624 97.672C43.6987 97.5013 43.7413 97.2987 43.752 97.064C43.768 96.824 43.776 96.5467 43.776 96.232V88.48H45.728V96.232C45.728 96.5893 45.7253 96.904 45.72 97.176C45.72 97.4427 45.6933 97.696 45.64 97.936C45.592 98.1707 45.4933 98.4133 45.344 98.664C45.0293 99.208 44.6187 99.608 44.112 99.864C43.6053 100.115 43.0427 100.24 42.424 100.24ZM47.0231 100L50.6551 88.48H53.4791L57.1111 100H55.1271L51.8311 89.664H52.2631L49.0071 100H47.0231ZM49.0471 97.504V95.704H55.0951V97.504H49.0471Z" fill="#121F3E"/>
<path d="M88.98 113V102.92H90.443V107.267H95.483V102.92H96.953V113H95.483V108.646H90.443V113H88.98ZM102.202 113.21C101.446 113.21 100.791 113.04 100.235 112.699C99.6801 112.358 99.2508 111.889 98.9475 111.292C98.6488 110.69 98.4995 109.997 98.4995 109.213C98.4995 108.424 98.6535 107.731 98.9615 107.134C99.2695 106.532 99.7011 106.065 100.256 105.734C100.812 105.398 101.46 105.23 102.202 105.23C102.958 105.23 103.614 105.4 104.169 105.741C104.725 106.082 105.154 106.551 105.457 107.148C105.761 107.745 105.912 108.434 105.912 109.213C105.912 110.002 105.758 110.697 105.45 111.299C105.147 111.896 104.718 112.365 104.162 112.706C103.607 113.042 102.954 113.21 102.202 113.21ZM102.202 111.831C102.926 111.831 103.465 111.588 103.819 111.103C104.179 110.613 104.358 109.983 104.358 109.213C104.358 108.424 104.176 107.794 103.812 107.323C103.453 106.847 102.916 106.609 102.202 106.609C101.712 106.609 101.309 106.721 100.991 106.945C100.674 107.164 100.438 107.47 100.284 107.862C100.13 108.249 100.053 108.7 100.053 109.213C100.053 110.006 100.235 110.641 100.599 111.117C100.963 111.593 101.498 111.831 102.202 111.831ZM116.509 113L116.516 108.289C116.516 107.743 116.376 107.318 116.096 107.015C115.816 106.707 115.447 106.553 114.99 106.553C114.71 106.553 114.453 106.618 114.22 106.749C113.991 106.875 113.804 107.066 113.66 107.323C113.52 107.575 113.45 107.892 113.45 108.275L112.743 107.918C112.733 107.386 112.845 106.919 113.079 106.518C113.317 106.117 113.639 105.806 114.045 105.587C114.451 105.363 114.906 105.251 115.41 105.251C116.226 105.251 116.859 105.496 117.307 105.986C117.755 106.476 117.979 107.127 117.979 107.939L117.972 113H116.509ZM107.444 113V105.44H108.746V107.624H108.914V113H107.444ZM111.98 113L111.987 108.317C111.987 107.766 111.847 107.335 111.567 107.022C111.291 106.709 110.92 106.553 110.454 106.553C109.992 106.553 109.618 106.712 109.334 107.029C109.054 107.346 108.914 107.762 108.914 108.275L108.214 107.827C108.214 107.332 108.333 106.891 108.571 106.504C108.809 106.117 109.131 105.811 109.537 105.587C109.943 105.363 110.402 105.251 110.916 105.251C111.452 105.251 111.91 105.365 112.288 105.594C112.666 105.818 112.953 106.133 113.149 106.539C113.349 106.945 113.45 107.416 113.45 107.953L113.443 113H111.98ZM123.054 113.21C122.302 113.21 121.642 113.047 121.073 112.72C120.508 112.389 120.067 111.929 119.75 111.341C119.437 110.748 119.281 110.062 119.281 109.283C119.281 108.457 119.435 107.741 119.743 107.134C120.055 106.527 120.489 106.058 121.045 105.727C121.6 105.396 122.246 105.23 122.984 105.23C123.754 105.23 124.409 105.41 124.951 105.769C125.492 106.124 125.896 106.63 126.162 107.288C126.432 107.946 126.54 108.728 126.484 109.633H125.021V109.101C125.011 108.224 124.843 107.575 124.517 107.155C124.195 106.735 123.702 106.525 123.04 106.525C122.307 106.525 121.756 106.756 121.388 107.218C121.019 107.68 120.835 108.347 120.835 109.22C120.835 110.051 121.019 110.695 121.388 111.152C121.756 111.605 122.288 111.831 122.984 111.831C123.441 111.831 123.835 111.728 124.167 111.523C124.503 111.313 124.764 111.014 124.951 110.627L126.386 111.082C126.092 111.759 125.646 112.284 125.049 112.657C124.451 113.026 123.786 113.21 123.054 113.21ZM120.359 109.633V108.492H125.756V109.633H120.359ZM133.748 113.203C132.829 113.203 132.08 113 131.501 112.594C130.922 112.188 130.568 111.616 130.437 110.879L131.935 110.648C132.028 111.04 132.243 111.35 132.579 111.579C132.92 111.803 133.342 111.915 133.846 111.915C134.303 111.915 134.66 111.822 134.917 111.635C135.178 111.448 135.309 111.192 135.309 110.865C135.309 110.674 135.262 110.52 135.169 110.403C135.08 110.282 134.891 110.167 134.602 110.06C134.313 109.953 133.872 109.82 133.279 109.661C132.63 109.493 132.115 109.313 131.732 109.122C131.354 108.926 131.083 108.7 130.92 108.443C130.761 108.182 130.682 107.867 130.682 107.498C130.682 107.041 130.803 106.642 131.046 106.301C131.289 105.96 131.629 105.697 132.068 105.51C132.511 105.323 133.029 105.23 133.622 105.23C134.201 105.23 134.716 105.321 135.169 105.503C135.622 105.685 135.988 105.944 136.268 106.28C136.548 106.611 136.716 107.001 136.772 107.449L135.274 107.722C135.223 107.358 135.052 107.071 134.763 106.861C134.474 106.651 134.098 106.537 133.636 106.518C133.193 106.499 132.833 106.574 132.558 106.742C132.283 106.905 132.145 107.132 132.145 107.421C132.145 107.589 132.196 107.731 132.299 107.848C132.406 107.965 132.612 108.077 132.915 108.184C133.218 108.291 133.666 108.42 134.259 108.569C134.894 108.732 135.398 108.914 135.771 109.115C136.144 109.311 136.41 109.547 136.569 109.822C136.732 110.093 136.814 110.422 136.814 110.809C136.814 111.556 136.541 112.141 135.995 112.566C135.454 112.991 134.705 113.203 133.748 113.203ZM141.716 113.21C140.964 113.21 140.304 113.047 139.735 112.72C139.17 112.389 138.729 111.929 138.412 111.341C138.099 110.748 137.943 110.062 137.943 109.283C137.943 108.457 138.097 107.741 138.405 107.134C138.717 106.527 139.151 106.058 139.707 105.727C140.262 105.396 140.908 105.23 141.646 105.23C142.416 105.23 143.071 105.41 143.613 105.769C144.154 106.124 144.558 106.63 144.824 107.288C145.094 107.946 145.202 108.728 145.146 109.633H143.683V109.101C143.673 108.224 143.505 107.575 143.179 107.155C142.857 106.735 142.364 106.525 141.702 106.525C140.969 106.525 140.418 106.756 140.05 107.218C139.681 107.68 139.497 108.347 139.497 109.22C139.497 110.051 139.681 110.695 140.05 111.152C140.418 111.605 140.95 111.831 141.646 111.831C142.103 111.831 142.497 111.728 142.829 111.523C143.165 111.313 143.426 111.014 143.613 110.627L145.048 111.082C144.754 111.759 144.308 112.284 143.711 112.657C143.113 113.026 142.448 113.21 141.716 113.21ZM139.021 109.633V108.492H144.418V109.633H139.021ZM146.856 113V102.71H148.319V113H146.856ZM150.561 113V102.71H152.024V113H150.561ZM157.479 113.21C156.728 113.21 156.068 113.047 155.498 112.72C154.934 112.389 154.493 111.929 154.175 111.341C153.863 110.748 153.706 110.062 153.706 109.283C153.706 108.457 153.86 107.741 154.168 107.134C154.481 106.527 154.915 106.058 155.47 105.727C156.026 105.396 156.672 105.23 157.409 105.23C158.179 105.23 158.835 105.41 159.376 105.769C159.918 106.124 160.321 106.63 160.587 107.288C160.858 107.946 160.965 108.728 160.909 109.633H159.446V109.101C159.437 108.224 159.269 107.575 158.942 107.155C158.62 106.735 158.128 106.525 157.465 106.525C156.733 106.525 156.182 106.756 155.813 107.218C155.445 107.68 155.26 108.347 155.26 109.22C155.26 110.051 155.445 110.695 155.813 111.152C156.182 111.605 156.714 111.831 157.409 111.831C157.867 111.831 158.261 111.728 158.592 111.523C158.928 111.313 159.19 111.014 159.376 110.627L160.811 111.082C160.517 111.759 160.072 112.284 159.474 112.657C158.877 113.026 158.212 113.21 157.479 113.21ZM154.784 109.633V108.492H160.181V109.633H154.784ZM162.48 113V105.44H163.782V107.274L163.6 107.036C163.693 106.793 163.815 106.572 163.964 106.371C164.113 106.166 164.286 105.998 164.482 105.867C164.673 105.727 164.886 105.62 165.119 105.545C165.357 105.466 165.6 105.419 165.847 105.405C166.094 105.386 166.332 105.398 166.561 105.44V106.812C166.314 106.747 166.038 106.728 165.735 106.756C165.436 106.784 165.161 106.88 164.909 107.043C164.671 107.197 164.482 107.384 164.342 107.603C164.207 107.822 164.109 108.067 164.048 108.338C163.987 108.604 163.957 108.886 163.957 109.185V113H162.48ZM170.557 109.171V107.995H174.757V109.171H170.557ZM183.585 113.21C182.577 113.21 181.719 112.991 181.009 112.552C180.3 112.109 179.756 111.493 179.378 110.704C179.005 109.915 178.818 109.001 178.818 107.96C178.818 106.919 179.005 106.005 179.378 105.216C179.756 104.427 180.3 103.814 181.009 103.375C181.719 102.932 182.577 102.71 183.585 102.71C184.747 102.71 185.709 103.004 186.469 103.592C187.235 104.18 187.767 104.971 188.065 105.965L186.581 106.364C186.385 105.659 186.035 105.106 185.531 104.705C185.032 104.304 184.383 104.103 183.585 104.103C182.871 104.103 182.276 104.264 181.8 104.586C181.324 104.908 180.965 105.358 180.722 105.937C180.484 106.516 180.365 107.19 180.365 107.96C180.361 108.73 180.477 109.404 180.715 109.983C180.958 110.562 181.317 111.012 181.793 111.334C182.274 111.656 182.871 111.817 183.585 111.817C184.383 111.817 185.032 111.616 185.531 111.215C186.035 110.809 186.385 110.256 186.581 109.556L188.065 109.955C187.767 110.949 187.235 111.74 186.469 112.328C185.709 112.916 184.747 113.21 183.585 113.21ZM188.632 113L191.908 102.92H194.015L197.291 113H195.772L192.755 103.802H193.133L190.151 113H188.632ZM190.333 110.725V109.353H195.597V110.725H190.333Z" fill="#96A0B5"/>
<path d="M90.996 86.21C90.226 86.21 89.5843 86.0093 89.071 85.608C88.5623 85.2067 88.2053 84.6653 88 83.984L89.666 83.585C89.7173 83.8697 89.8667 84.1147 90.114 84.32C90.3613 84.5253 90.6343 84.628 90.933 84.628C91.129 84.628 91.3367 84.5767 91.556 84.474C91.7753 84.3667 91.9387 84.1963 92.046 83.963C92.1113 83.8137 92.1487 83.6363 92.158 83.431C92.172 83.221 92.179 82.9783 92.179 82.703V75.92H93.887V82.703C93.887 83.0157 93.8847 83.291 93.88 83.529C93.88 83.7623 93.8567 83.984 93.81 84.194C93.768 84.3993 93.6817 84.6117 93.551 84.831C93.2757 85.307 92.9163 85.657 92.473 85.881C92.0297 86.1003 91.5373 86.21 90.996 86.21ZM98.8287 86.217C98.2687 86.217 97.8067 86.1237 97.4427 85.937C97.0787 85.7503 96.7893 85.5123 96.5747 85.223C96.36 84.9337 96.2013 84.6257 96.0987 84.299C95.996 83.9723 95.9283 83.6643 95.8957 83.375C95.8677 83.081 95.8537 82.843 95.8537 82.661V78.44H97.5617V82.08C97.5617 82.3133 97.578 82.577 97.6107 82.871C97.6433 83.1603 97.718 83.4403 97.8347 83.711C97.956 83.977 98.1333 84.1963 98.3667 84.369C98.6047 84.5417 98.9243 84.628 99.3257 84.628C99.5403 84.628 99.7527 84.593 99.9627 84.523C100.173 84.453 100.362 84.334 100.53 84.166C100.702 83.9933 100.84 83.7577 100.943 83.459C101.045 83.1603 101.097 82.7823 101.097 82.325L102.098 82.752C102.098 83.396 101.972 83.9793 101.72 84.502C101.472 85.0247 101.106 85.4423 100.621 85.755C100.135 86.063 99.538 86.217 98.8287 86.217ZM101.3 86V83.655H101.097V78.44H102.791V86H101.3ZM104.897 86V75.71H106.584V86H104.897ZM108.821 77.292V75.745H110.508V77.292H108.821ZM108.821 86V78.44H110.508V86H108.821ZM114.719 86.21C114.173 86.21 113.711 86.1073 113.333 85.902C112.955 85.692 112.668 85.4143 112.472 85.069C112.281 84.7237 112.185 84.3433 112.185 83.928C112.185 83.564 112.246 83.2373 112.367 82.948C112.488 82.654 112.675 82.402 112.927 82.192C113.179 81.9773 113.506 81.8023 113.907 81.667C114.21 81.569 114.565 81.4803 114.971 81.401C115.382 81.3217 115.825 81.2493 116.301 81.184C116.782 81.114 117.283 81.0393 117.806 80.96L117.204 81.303C117.209 80.7803 117.092 80.3953 116.854 80.148C116.616 79.9007 116.215 79.777 115.65 79.777C115.309 79.777 114.98 79.8563 114.663 80.015C114.346 80.1737 114.124 80.4467 113.998 80.834L112.458 80.351C112.645 79.7117 112.999 79.1983 113.522 78.811C114.049 78.4237 114.759 78.23 115.65 78.23C116.322 78.23 116.912 78.3397 117.421 78.559C117.934 78.7783 118.315 79.1377 118.562 79.637C118.697 79.903 118.779 80.176 118.807 80.456C118.835 80.7313 118.849 81.0323 118.849 81.359V86H117.372V84.362L117.617 84.628C117.276 85.174 116.877 85.5753 116.42 85.832C115.967 86.084 115.4 86.21 114.719 86.21ZM115.055 84.866C115.438 84.866 115.764 84.7983 116.035 84.663C116.306 84.5277 116.52 84.362 116.679 84.166C116.842 83.97 116.952 83.7857 117.008 83.613C117.097 83.3983 117.146 83.1533 117.155 82.878C117.169 82.598 117.176 82.3717 117.176 82.199L117.694 82.353C117.185 82.4323 116.749 82.5023 116.385 82.563C116.021 82.6237 115.708 82.682 115.447 82.738C115.186 82.7893 114.955 82.8477 114.754 82.913C114.558 82.983 114.392 83.0647 114.257 83.158C114.122 83.2513 114.017 83.3587 113.942 83.48C113.872 83.6013 113.837 83.7437 113.837 83.907C113.837 84.0937 113.884 84.2593 113.977 84.404C114.07 84.544 114.206 84.656 114.383 84.74C114.565 84.824 114.789 84.866 115.055 84.866ZM122.774 86L125.952 75.92H128.423L131.601 86H129.865L126.981 76.956H127.359L124.51 86H122.774ZM124.545 83.816V82.241H129.837V83.816H124.545ZM132.867 86V78.44H134.358V80.281L134.176 80.043C134.269 79.791 134.393 79.5623 134.547 79.357C134.705 79.147 134.894 78.9743 135.114 78.839C135.3 78.713 135.506 78.615 135.73 78.545C135.958 78.4703 136.192 78.426 136.43 78.412C136.668 78.3933 136.899 78.4027 137.123 78.44V80.015C136.899 79.9497 136.64 79.9287 136.346 79.952C136.056 79.9753 135.795 80.057 135.562 80.197C135.328 80.323 135.137 80.484 134.988 80.68C134.843 80.876 134.736 81.1 134.666 81.352C134.596 81.5993 134.561 81.8677 134.561 82.157V86H132.867ZM142.89 86C142.39 86.0933 141.9 86.133 141.42 86.119C140.944 86.1097 140.517 86.0233 140.139 85.86C139.761 85.692 139.474 85.4283 139.278 85.069C139.105 84.7423 139.014 84.4087 139.005 84.068C138.995 83.7273 138.991 83.3423 138.991 82.913V76.34H140.671V82.815C140.671 83.1183 140.673 83.3843 140.678 83.613C140.687 83.8417 140.736 84.0283 140.825 84.173C140.993 84.453 141.261 84.6093 141.63 84.642C141.998 84.6747 142.418 84.656 142.89 84.586V86ZM137.619 79.763V78.44H142.89V79.763H137.619ZM149.744 86V82.36C149.744 82.122 149.728 81.8583 149.695 81.569C149.662 81.2797 149.585 81.002 149.464 80.736C149.347 80.4653 149.17 80.2437 148.932 80.071C148.699 79.8983 148.381 79.812 147.98 79.812C147.765 79.812 147.553 79.847 147.343 79.917C147.133 79.987 146.942 80.1083 146.769 80.281C146.601 80.449 146.466 80.6823 146.363 80.981C146.26 81.275 146.209 81.653 146.209 82.115L145.208 81.688C145.208 81.044 145.332 80.4607 145.579 79.938C145.831 79.4153 146.2 79 146.685 78.692C147.17 78.3793 147.768 78.223 148.477 78.223C149.037 78.223 149.499 78.3163 149.863 78.503C150.227 78.6897 150.516 78.9277 150.731 79.217C150.946 79.5063 151.104 79.8143 151.207 80.141C151.31 80.4677 151.375 80.778 151.403 81.072C151.436 81.3613 151.452 81.597 151.452 81.779V86H149.744ZM144.501 86V75.92H146.006V81.226H146.209V86H144.501ZM156.114 86.217C155.554 86.217 155.092 86.1237 154.728 85.937C154.364 85.7503 154.074 85.5123 153.86 85.223C153.645 84.9337 153.486 84.6257 153.384 84.299C153.281 83.9723 153.213 83.6643 153.181 83.375C153.153 83.081 153.139 82.843 153.139 82.661V78.44H154.847V82.08C154.847 82.3133 154.863 82.577 154.896 82.871C154.928 83.1603 155.003 83.4403 155.12 83.711C155.241 83.977 155.418 84.1963 155.652 84.369C155.89 84.5417 156.209 84.628 156.611 84.628C156.825 84.628 157.038 84.593 157.248 84.523C157.458 84.453 157.647 84.334 157.815 84.166C157.987 83.9933 158.125 83.7577 158.228 83.459C158.33 83.1603 158.382 82.7823 158.382 82.325L159.383 82.752C159.383 83.396 159.257 83.9793 159.005 84.502C158.757 85.0247 158.391 85.4423 157.906 85.755C157.42 86.063 156.823 86.217 156.114 86.217ZM158.585 86V83.655H158.382V78.44H160.076V86H158.585ZM162.043 86V78.44H163.534V80.281L163.352 80.043C163.445 79.791 163.569 79.5623 163.723 79.357C163.881 79.147 164.07 78.9743 164.29 78.839C164.476 78.713 164.682 78.615 164.906 78.545C165.134 78.4703 165.368 78.426 165.606 78.412C165.844 78.3933 166.075 78.4027 166.299 78.44V80.015C166.075 79.9497 165.816 79.9287 165.522 79.952C165.232 79.9753 164.971 80.057 164.738 80.197C164.504 80.323 164.313 80.484 164.164 80.68C164.019 80.876 163.912 81.1 163.842 81.352C163.772 81.5993 163.737 81.8677 163.737 82.157V86H162.043Z" fill="#121F3E"/>
<circle cx="292" cy="94" r="16" fill="#EBEEFA"/>
<path d="M290.5 96.379L297.394 89.4843L298.455 90.5448L290.5 98.5L285.727 93.727L286.787 92.6665L290.5 96.379Z" fill="#3454D1"/>
<path d="M27.792 41V31.512H24.16V29.48H33.6V31.512H29.968V41H27.792ZM37.6204 41.24C36.735 41.24 35.9537 41.0507 35.2764 40.672C34.6044 40.288 34.0764 39.7627 33.6924 39.096C33.3137 38.424 33.1244 37.656 33.1244 36.792C33.1244 35.848 33.311 35.0267 33.6844 34.328C34.0577 33.6293 34.5724 33.088 35.2284 32.704C35.8844 32.3147 36.639 32.12 37.4924 32.12C38.399 32.12 39.1697 32.3333 39.8044 32.76C40.439 33.1867 40.9084 33.7867 41.2124 34.56C41.5164 35.3333 41.623 36.2427 41.5324 37.288H39.3804V36.488C39.3804 35.608 39.239 34.976 38.9564 34.592C38.679 34.2027 38.223 34.008 37.5884 34.008C36.847 34.008 36.3004 34.2347 35.9484 34.688C35.6017 35.136 35.4284 35.8 35.4284 36.68C35.4284 37.4853 35.6017 38.1093 35.9484 38.552C36.3004 38.9893 36.815 39.208 37.4924 39.208C37.919 39.208 38.2844 39.1147 38.5884 38.928C38.8924 38.7413 39.1244 38.472 39.2844 38.12L41.4604 38.744C41.135 39.5333 40.6204 40.1467 39.9164 40.584C39.2177 41.0213 38.4524 41.24 37.6204 41.24ZM34.7564 37.288V35.672H40.4844V37.288H34.7564ZM48.9924 41V36.92C48.9924 36.7227 48.9817 36.472 48.9604 36.168C48.939 35.8587 48.8724 35.5493 48.7604 35.24C48.6484 34.9307 48.4644 34.672 48.2084 34.464C47.9577 34.256 47.6004 34.152 47.1364 34.152C46.9497 34.152 46.7497 34.1813 46.5364 34.24C46.323 34.2987 46.123 34.4133 45.9364 34.584C45.7497 34.7493 45.595 34.9947 45.4724 35.32C45.355 35.6453 45.2964 36.0773 45.2964 36.616L44.0484 36.024C44.0484 35.3413 44.187 34.7013 44.4644 34.104C44.7417 33.5067 45.1577 33.024 45.7124 32.656C46.2724 32.288 46.9764 32.104 47.8244 32.104C48.5017 32.104 49.0537 32.2187 49.4804 32.448C49.907 32.6773 50.2377 32.968 50.4724 33.32C50.7124 33.672 50.883 34.04 50.9844 34.424C51.0857 34.8027 51.147 35.1493 51.1684 35.464C51.1897 35.7787 51.2004 36.008 51.2004 36.152V41H48.9924ZM43.0884 41V32.36H45.0244V35.224H45.2964V41H43.0884ZM55.6763 41.24C55.0576 41.24 54.5323 41.1227 54.1003 40.888C53.6736 40.648 53.3483 40.3307 53.1243 39.936C52.9056 39.536 52.7963 39.096 52.7963 38.616C52.7963 38.216 52.8576 37.8507 52.9803 37.52C53.1029 37.1893 53.3003 36.8987 53.5723 36.648C53.8496 36.392 54.2203 36.1787 54.6843 36.008C55.0043 35.8907 55.3856 35.7867 55.8283 35.696C56.2709 35.6053 56.7723 35.52 57.3323 35.44C57.8923 35.3547 58.5083 35.2613 59.1803 35.16L58.3963 35.592C58.3963 35.08 58.2736 34.704 58.0283 34.464C57.7829 34.224 57.3723 34.104 56.7963 34.104C56.4763 34.104 56.1429 34.1813 55.7963 34.336C55.4496 34.4907 55.2069 34.7653 55.0683 35.16L53.1003 34.536C53.3189 33.8213 53.7296 33.24 54.3323 32.792C54.9349 32.344 55.7563 32.12 56.7963 32.12C57.5589 32.12 58.2363 32.2373 58.8283 32.472C59.4203 32.7067 59.8683 33.112 60.1723 33.688C60.3429 34.008 60.4443 34.328 60.4763 34.648C60.5083 34.968 60.5243 35.3253 60.5243 35.72V41H58.6203V39.224L58.8923 39.592C58.4709 40.1733 58.0149 40.5947 57.5243 40.856C57.0389 41.112 56.4229 41.24 55.6763 41.24ZM56.1403 39.528C56.5403 39.528 56.8763 39.4587 57.1483 39.32C57.4256 39.176 57.6443 39.0133 57.8043 38.832C57.9696 38.6507 58.0816 38.4987 58.1403 38.376C58.2523 38.1413 58.3163 37.8693 58.3323 37.56C58.3536 37.2453 58.3643 36.984 58.3643 36.776L59.0043 36.936C58.3589 37.0427 57.8363 37.1333 57.4363 37.208C57.0363 37.2773 56.7136 37.3413 56.4683 37.4C56.2229 37.4587 56.0069 37.5227 55.8203 37.592C55.6069 37.6773 55.4336 37.7707 55.3003 37.872C55.1723 37.968 55.0763 38.0747 55.0123 38.192C54.9536 38.3093 54.9243 38.44 54.9243 38.584C54.9243 38.7813 54.9723 38.952 55.0683 39.096C55.1696 39.2347 55.3109 39.3413 55.4923 39.416C55.6736 39.4907 55.8896 39.528 56.1403 39.528ZM68.4924 41V36.92C68.4924 36.7227 68.4817 36.472 68.4604 36.168C68.439 35.8587 68.3724 35.5493 68.2604 35.24C68.1484 34.9307 67.9644 34.672 67.7084 34.464C67.4577 34.256 67.1004 34.152 66.6364 34.152C66.4497 34.152 66.2497 34.1813 66.0364 34.24C65.823 34.2987 65.623 34.4133 65.4364 34.584C65.2497 34.7493 65.095 34.9947 64.9724 35.32C64.855 35.6453 64.7964 36.0773 64.7964 36.616L63.5484 36.024C63.5484 35.3413 63.687 34.7013 63.9644 34.104C64.2417 33.5067 64.6577 33.024 65.2124 32.656C65.7724 32.288 66.4764 32.104 67.3244 32.104C68.0017 32.104 68.5537 32.2187 68.9804 32.448C69.407 32.6773 69.7377 32.968 69.9724 33.32C70.2124 33.672 70.383 34.04 70.4844 34.424C70.5857 34.8027 70.647 35.1493 70.6684 35.464C70.6897 35.7787 70.7004 36.008 70.7004 36.152V41H68.4924ZM62.5884 41V32.36H64.5244V35.224H64.7964V41H62.5884ZM77.9603 41C77.3629 41.112 76.7763 41.16 76.2003 41.144C75.6296 41.1333 75.1176 41.0347 74.6643 40.848C74.2163 40.656 73.8749 40.3493 73.6403 39.928C73.4269 39.5333 73.3149 39.1333 73.3043 38.728C73.2936 38.3173 73.2883 37.8533 73.2883 37.336V29.96H75.4643V37.208C75.4643 37.544 75.4669 37.848 75.4723 38.12C75.4829 38.3867 75.5389 38.6 75.6403 38.76C75.8323 39.064 76.1389 39.2293 76.5603 39.256C76.9816 39.2827 77.4483 39.2613 77.9603 39.192V41ZM71.8163 34.04V32.36H77.9603V34.04H71.8163ZM83.2616 41.24C82.1736 41.24 81.2936 40.9947 80.6216 40.504C79.955 40.008 79.5496 39.3093 79.4056 38.408L81.6296 38.072C81.7203 38.4773 81.9203 38.7947 82.2296 39.024C82.5443 39.2533 82.9416 39.368 83.4216 39.368C83.8163 39.368 84.1203 39.2933 84.3336 39.144C84.547 38.9893 84.6536 38.776 84.6536 38.504C84.6536 38.3333 84.611 38.1973 84.5256 38.096C84.4403 37.9893 84.2483 37.8853 83.9496 37.784C83.6563 37.6827 83.1976 37.5493 82.5736 37.384C81.8696 37.2027 81.307 37 80.8856 36.776C80.4643 36.552 80.1603 36.2853 79.9736 35.976C79.787 35.6613 79.6936 35.2827 79.6936 34.84C79.6936 34.2853 79.835 33.8053 80.1176 33.4C80.4003 32.9893 80.7976 32.6747 81.3096 32.456C81.827 32.232 82.435 32.12 83.1336 32.12C83.811 32.12 84.411 32.224 84.9336 32.432C85.4563 32.64 85.8776 32.936 86.1976 33.32C86.523 33.704 86.723 34.1573 86.7976 34.68L84.5736 35.08C84.5363 34.76 84.3976 34.5067 84.1576 34.32C83.9176 34.1333 83.5923 34.024 83.1816 33.992C82.7816 33.9653 82.459 34.0187 82.2136 34.152C81.9736 34.2853 81.8536 34.4773 81.8536 34.728C81.8536 34.8773 81.9043 35.0027 82.0056 35.104C82.1123 35.2053 82.3283 35.3093 82.6536 35.416C82.9843 35.5227 83.4856 35.6613 84.1576 35.832C84.8136 36.0027 85.339 36.2027 85.7336 36.432C86.1336 36.656 86.4243 36.928 86.6056 37.248C86.787 37.5627 86.8776 37.944 86.8776 38.392C86.8776 39.2773 86.5576 39.9733 85.9176 40.48C85.2776 40.9867 84.3923 41.24 83.2616 41.24ZM91.8388 41V29.48H96.7028C96.8148 29.48 96.9641 29.4853 97.1508 29.496C97.3428 29.5013 97.5134 29.5173 97.6628 29.544C98.3508 29.6507 98.9134 29.8773 99.3507 30.224C99.7934 30.5707 100.119 31.008 100.327 31.536C100.535 32.0587 100.639 32.6427 100.639 33.288C100.639 33.9333 100.532 34.52 100.319 35.048C100.111 35.5707 99.7854 36.0053 99.3428 36.352C98.9054 36.6987 98.3454 36.9253 97.6628 37.032C97.5134 37.0533 97.3428 37.0693 97.1508 37.08C96.9588 37.0907 96.8094 37.096 96.7028 37.096H94.0148V41H91.8388ZM94.0148 35.064H96.6068C96.7188 35.064 96.8414 35.0587 96.9748 35.048C97.1081 35.0373 97.2308 35.016 97.3428 34.984C97.6361 34.904 97.8628 34.7707 98.0228 34.584C98.1828 34.392 98.2921 34.1813 98.3508 33.952C98.4148 33.7173 98.4468 33.496 98.4468 33.288C98.4468 33.08 98.4148 32.8613 98.3508 32.632C98.2921 32.3973 98.1828 32.1867 98.0228 32C97.8628 31.808 97.6361 31.672 97.3428 31.592C97.2308 31.56 97.1081 31.5387 96.9748 31.528C96.8414 31.5173 96.7188 31.512 96.6068 31.512H94.0148V35.064ZM105.977 41.24C105.107 41.24 104.345 41.0453 103.689 40.656C103.033 40.2667 102.521 39.7307 102.153 39.048C101.79 38.36 101.609 37.5707 101.609 36.68C101.609 35.7787 101.795 34.9867 102.169 34.304C102.542 33.616 103.057 33.08 103.713 32.696C104.369 32.312 105.123 32.12 105.977 32.12C106.846 32.12 107.609 32.3147 108.265 32.704C108.926 33.0933 109.441 33.632 109.809 34.32C110.177 35.0027 110.361 35.7893 110.361 36.68C110.361 37.576 110.174 38.368 109.801 39.056C109.433 39.7387 108.918 40.2747 108.257 40.664C107.601 41.048 106.841 41.24 105.977 41.24ZM105.977 39.208C106.675 39.208 107.195 38.9733 107.537 38.504C107.883 38.0293 108.057 37.4213 108.057 36.68C108.057 35.912 107.881 35.2987 107.529 34.84C107.182 34.3813 106.665 34.152 105.977 34.152C105.502 34.152 105.113 34.2587 104.809 34.472C104.505 34.6853 104.278 34.9813 104.129 35.36C103.985 35.7387 103.913 36.1787 103.913 36.68C103.913 37.4533 104.086 38.0693 104.433 38.528C104.785 38.9813 105.299 39.208 105.977 39.208ZM117.304 41C116.707 41.112 116.12 41.16 115.544 41.144C114.973 41.1333 114.461 41.0347 114.008 40.848C113.56 40.656 113.219 40.3493 112.984 39.928C112.771 39.5333 112.659 39.1333 112.648 38.728C112.637 38.3173 112.632 37.8533 112.632 37.336V29.96H114.808V37.208C114.808 37.544 114.811 37.848 114.816 38.12C114.827 38.3867 114.883 38.6 114.984 38.76C115.176 39.064 115.483 39.2293 115.904 39.256C116.325 39.2827 116.792 39.2613 117.304 39.192V41ZM111.16 34.04V32.36H117.304V34.04H111.16ZM122.761 41.24C121.876 41.24 121.094 41.0507 120.417 40.672C119.745 40.288 119.217 39.7627 118.833 39.096C118.454 38.424 118.265 37.656 118.265 36.792C118.265 35.848 118.452 35.0267 118.825 34.328C119.198 33.6293 119.713 33.088 120.369 32.704C121.025 32.3147 121.78 32.12 122.633 32.12C123.54 32.12 124.31 32.3333 124.945 32.76C125.58 33.1867 126.049 33.7867 126.353 34.56C126.657 35.3333 126.764 36.2427 126.673 37.288H124.521V36.488C124.521 35.608 124.38 34.976 124.097 34.592C123.82 34.2027 123.364 34.008 122.729 34.008C121.988 34.008 121.441 34.2347 121.089 34.688C120.742 35.136 120.569 35.8 120.569 36.68C120.569 37.4853 120.742 38.1093 121.089 38.552C121.441 38.9893 121.956 39.208 122.633 39.208C123.06 39.208 123.425 39.1147 123.729 38.928C124.033 38.7413 124.265 38.472 124.425 38.12L126.601 38.744C126.276 39.5333 125.761 40.1467 125.057 40.584C124.358 41.0213 123.593 41.24 122.761 41.24ZM119.897 37.288V35.672H125.625V37.288H119.897ZM134.133 41V36.92C134.133 36.7227 134.122 36.472 134.101 36.168C134.08 35.8587 134.013 35.5493 133.901 35.24C133.789 34.9307 133.605 34.672 133.349 34.464C133.098 34.256 132.741 34.152 132.277 34.152C132.09 34.152 131.89 34.1813 131.677 34.24C131.464 34.2987 131.264 34.4133 131.077 34.584C130.89 34.7493 130.736 34.9947 130.613 35.32C130.496 35.6453 130.437 36.0773 130.437 36.616L129.189 36.024C129.189 35.3413 129.328 34.7013 129.605 34.104C129.882 33.5067 130.298 33.024 130.853 32.656C131.413 32.288 132.117 32.104 132.965 32.104C133.642 32.104 134.194 32.2187 134.621 32.448C135.048 32.6773 135.378 32.968 135.613 33.32C135.853 33.672 136.024 34.04 136.125 34.424C136.226 34.8027 136.288 35.1493 136.309 35.464C136.33 35.7787 136.341 36.008 136.341 36.152V41H134.133ZM128.229 41V32.36H130.165V35.224H130.437V41H128.229ZM143.601 41C143.004 41.112 142.417 41.16 141.841 41.144C141.27 41.1333 140.758 41.0347 140.305 40.848C139.857 40.656 139.516 40.3493 139.281 39.928C139.068 39.5333 138.956 39.1333 138.945 38.728C138.934 38.3173 138.929 37.8533 138.929 37.336V29.96H141.105V37.208C141.105 37.544 141.108 37.848 141.113 38.12C141.124 38.3867 141.18 38.6 141.281 38.76C141.473 39.064 141.78 39.2293 142.201 39.256C142.622 39.2827 143.089 39.2613 143.601 39.192V41ZM137.457 34.04V32.36H143.601V34.04H137.457ZM145.686 31.16V29.24H147.862V31.16H145.686ZM145.686 41V32.36H147.862V41H145.686ZM152.661 41.24C152.042 41.24 151.517 41.1227 151.085 40.888C150.658 40.648 150.333 40.3307 150.109 39.936C149.89 39.536 149.781 39.096 149.781 38.616C149.781 38.216 149.842 37.8507 149.965 37.52C150.087 37.1893 150.285 36.8987 150.557 36.648C150.834 36.392 151.205 36.1787 151.669 36.008C151.989 35.8907 152.37 35.7867 152.813 35.696C153.255 35.6053 153.757 35.52 154.317 35.44C154.877 35.3547 155.493 35.2613 156.165 35.16L155.381 35.592C155.381 35.08 155.258 34.704 155.013 34.464C154.767 34.224 154.357 34.104 153.781 34.104C153.461 34.104 153.127 34.1813 152.781 34.336C152.434 34.4907 152.191 34.7653 152.053 35.16L150.085 34.536C150.303 33.8213 150.714 33.24 151.317 32.792C151.919 32.344 152.741 32.12 153.781 32.12C154.543 32.12 155.221 32.2373 155.813 32.472C156.405 32.7067 156.853 33.112 157.157 33.688C157.327 34.008 157.429 34.328 157.461 34.648C157.493 34.968 157.509 35.3253 157.509 35.72V41H155.605V39.224L155.877 39.592C155.455 40.1733 154.999 40.5947 154.509 40.856C154.023 41.112 153.407 41.24 152.661 41.24ZM153.125 39.528C153.525 39.528 153.861 39.4587 154.133 39.32C154.41 39.176 154.629 39.0133 154.789 38.832C154.954 38.6507 155.066 38.4987 155.125 38.376C155.237 38.1413 155.301 37.8693 155.317 37.56C155.338 37.2453 155.349 36.984 155.349 36.776L155.989 36.936C155.343 37.0427 154.821 37.1333 154.421 37.208C154.021 37.2773 153.698 37.3413 153.453 37.4C153.207 37.4587 152.991 37.5227 152.805 37.592C152.591 37.6773 152.418 37.7707 152.285 37.872C152.157 37.968 152.061 38.0747 151.997 38.192C151.938 38.3093 151.909 38.44 151.909 38.584C151.909 38.7813 151.957 38.952 152.053 39.096C152.154 39.2347 152.295 39.3413 152.477 39.416C152.658 39.4907 152.874 39.528 153.125 39.528ZM159.749 41V29.24H161.925V41H159.749ZM171.542 43.624C170.924 42.8987 170.393 42.0747 169.95 41.152C169.513 40.2293 169.18 39.264 168.95 38.256C168.726 37.2427 168.625 36.2373 168.646 35.24C168.625 34.2427 168.726 33.2373 168.95 32.224C169.18 31.2107 169.513 30.2453 169.95 29.328C170.393 28.4053 170.924 27.5813 171.542 26.856L173.158 28.04C172.508 28.824 171.998 29.608 171.63 30.392C171.262 31.1707 171.001 31.9627 170.846 32.768C170.697 33.568 170.62 34.392 170.614 35.24C170.62 36.088 170.697 36.9147 170.846 37.72C171.001 38.52 171.262 39.312 171.63 40.096C171.998 40.8747 172.508 41.656 173.158 42.44L171.542 43.624ZM174.597 40.984V39.096L179.429 34.808C179.792 34.488 180.048 34.1867 180.197 33.904C180.346 33.6213 180.421 33.3573 180.421 33.112C180.421 32.76 180.349 32.448 180.205 32.176C180.061 31.8987 179.858 31.6827 179.597 31.528C179.336 31.368 179.029 31.288 178.677 31.288C178.309 31.288 177.984 31.3733 177.701 31.544C177.424 31.7093 177.208 31.9307 177.053 32.208C176.898 32.48 176.826 32.776 176.837 33.096H174.597C174.597 32.3067 174.77 31.624 175.117 31.048C175.464 30.472 175.946 30.0267 176.565 29.712C177.184 29.3973 177.904 29.24 178.725 29.24C179.477 29.24 180.149 29.4053 180.741 29.736C181.338 30.0613 181.808 30.5173 182.149 31.104C182.49 31.6907 182.661 32.3707 182.661 33.144C182.661 33.7147 182.581 34.1893 182.421 34.568C182.261 34.9413 182.024 35.288 181.709 35.608C181.394 35.9227 181.008 36.28 180.549 36.68L177.429 39.416L177.253 38.936H182.661V40.984H174.597ZM185.709 43.624C186.328 42.8987 186.856 42.0747 187.293 41.152C187.736 40.2293 188.069 39.264 188.293 38.256C188.522 37.2427 188.626 36.2373 188.605 35.24C188.626 34.2427 188.522 33.2373 188.293 32.224C188.069 31.2107 187.736 30.2453 187.293 29.328C186.856 28.4053 186.328 27.5813 185.709 26.856L184.093 28.04C184.744 28.824 185.253 29.608 185.621 30.392C185.989 31.1707 186.248 31.9627 186.397 32.768C186.552 33.568 186.632 34.392 186.637 35.24C186.632 36.088 186.552 36.9147 186.397 37.72C186.248 38.52 185.989 39.312 185.621 40.096C185.253 40.8747 184.744 41.656 184.093 42.44L185.709 43.624Z" fill="#121F3E"/>
</svg>
