<svg width="24" height="24" viewBox="0 0 24 24" fill="none" xmlns="http://www.w3.org/2000/svg">
<path d="M20.9471 8.3052C20.937 7.54782 20.7952 6.79798 20.5281 6.0892C20.2964 5.49135 19.9426 4.9484 19.4892 4.49503C19.0359 4.04166 18.4929 3.68785 17.8951 3.4562C17.1954 3.19356 16.4562 3.05154 15.7091 3.0362C14.7471 2.9932 14.4421 2.9812 12.0001 2.9812C9.55807 2.9812 9.24507 2.9812 8.29007 3.0362C7.54323 3.05166 6.80442 3.19367 6.10507 3.4562C5.50713 3.68769 4.96409 4.04145 4.5107 4.49483C4.05732 4.94822 3.70356 5.49126 3.47207 6.0892C3.2089 6.78833 3.06719 7.52731 3.05307 8.2742C3.01007 9.2372 2.99707 9.5422 2.99707 11.9842C2.99707 14.4262 2.99707 14.7382 3.05307 15.6942C3.06807 16.4422 3.20907 17.1802 3.47207 17.8812C3.70395 18.479 4.05797 19.0218 4.51151 19.475C4.96505 19.9282 5.50813 20.2818 6.10607 20.5132C6.8035 20.7864 7.54244 20.9386 8.29107 20.9632C9.25407 21.0062 9.55907 21.0192 12.0011 21.0192C14.4431 21.0192 14.7561 21.0192 15.7111 20.9632C16.4582 20.9485 17.1974 20.8068 17.8971 20.5442C18.4948 20.3123 19.0376 19.9584 19.4909 19.505C19.9442 19.0517 20.2982 18.5089 20.5301 17.9112C20.7931 17.2112 20.9341 16.4732 20.9491 15.7242C20.9921 14.7622 21.0051 14.4572 21.0051 12.0142C21.0031 9.5722 21.0031 9.2622 20.9471 8.3052ZM11.9941 16.6022C9.44007 16.6022 7.37107 14.5332 7.37107 11.9792C7.37107 9.4252 9.44007 7.3562 11.9941 7.3562C13.2202 7.3562 14.396 7.84327 15.263 8.71025C16.13 9.57723 16.6171 10.7531 16.6171 11.9792C16.6171 13.2053 16.13 14.3812 15.263 15.2482C14.396 16.1151 13.2202 16.6022 11.9941 16.6022ZM16.8011 8.2632C16.2041 8.2632 15.7231 7.7812 15.7231 7.1852C15.7231 7.0437 15.7509 6.90359 15.8051 6.77286C15.8592 6.64213 15.9386 6.52335 16.0387 6.42329C16.1387 6.32324 16.2575 6.24387 16.3882 6.18972C16.519 6.13557 16.6591 6.1077 16.8006 6.1077C16.9421 6.1077 17.0822 6.13557 17.2129 6.18972C17.3436 6.24387 17.4624 6.32324 17.5625 6.42329C17.6625 6.52335 17.7419 6.64213 17.7961 6.77286C17.8502 6.90359 17.8781 7.0437 17.8781 7.1852C17.8781 7.7812 17.3961 8.2632 16.8011 8.2632Z" fill="#D4DBE1"/>
<path d="M11.9942 14.9823C13.6527 14.9823 14.9972 13.6378 14.9972 11.9793C14.9972 10.3208 13.6527 8.97632 11.9942 8.97632C10.3357 8.97632 8.99121 10.3208 8.99121 11.9793C8.99121 13.6378 10.3357 14.9823 11.9942 14.9823Z" fill="#D4DBE1"/>
</svg>
