<svg width="22" height="22" viewBox="0 0 22 22" fill="none" xmlns="http://www.w3.org/2000/svg">
<path d="M12.8333 9.11671H12.8833V9.16671V19.25C12.8833 19.4799 12.9746 19.7003 13.1371 19.8629C13.2997 20.0254 13.5201 20.1167 13.75 20.1167H19.25C19.4798 20.1167 19.7003 20.0254 19.8628 19.8629C20.0253 19.7003 20.1166 19.4799 20.1166 19.25V2.75004C20.1166 2.52019 20.0253 2.29975 19.8628 2.13721C19.7003 1.97468 19.4798 1.88337 19.25 1.88337H2.74996C2.52011 1.88337 2.29966 1.97468 2.13713 2.13721C1.9746 2.29975 1.88329 2.52019 1.88329 2.75004V8.25004C1.88329 8.4799 1.9746 8.70034 2.13713 8.86287C2.29966 9.0254 2.52011 9.11671 2.74996 9.11671H12.8333ZM3.66663 7.38337H3.61663V7.33337V3.66671V3.61671H3.66663H18.3333H18.3833V3.66671V18.3334V18.3834H18.3333H14.6666H14.6166V18.3334V16.5V16.45H14.6666H15.5833C15.8131 16.45 16.0336 16.3587 16.1961 16.1962C16.3586 16.0337 16.45 15.8132 16.45 15.5834C16.45 15.3535 16.3586 15.1331 16.1961 14.9705C16.0336 14.808 15.8131 14.7167 15.5833 14.7167H14.6666H14.6166V14.6667V12.8334V12.7834H14.6666H15.5833C15.8131 12.7834 16.0336 12.6921 16.1961 12.5295C16.3586 12.367 16.45 12.1466 16.45 11.9167C16.45 11.6869 16.3586 11.4664 16.1961 11.3039C16.0336 11.1413 15.8131 11.05 15.5833 11.05H14.6666H14.6166V11V9.16671V9.11671H14.6666H15.5833C15.8131 9.11671 16.0336 9.0254 16.1961 8.86287C16.3586 8.70034 16.45 8.4799 16.45 8.25004C16.45 8.02019 16.3586 7.79975 16.1961 7.63722C16.0336 7.47468 15.8131 7.38337 15.5833 7.38337H14.6666H14.6166V7.33337V6.41671C14.6166 6.18685 14.5253 5.96641 14.3628 5.80388C14.2003 5.64135 13.9798 5.55004 13.75 5.55004C13.5201 5.55004 13.2997 5.64135 13.1371 5.80388C12.9746 5.96641 12.8833 6.18685 12.8833 6.41671V7.33337V7.38337H12.8333H11H10.95V7.33337V6.41671C10.95 6.18685 10.8587 5.96641 10.6961 5.80388C10.5336 5.64135 10.3131 5.55004 10.0833 5.55004C9.85344 5.55004 9.633 5.64135 9.47047 5.80388C9.30793 5.96641 9.21663 6.18685 9.21663 6.41671V7.33337V7.38337H9.16663H7.33329H7.28329V7.33337V6.41671C7.28329 6.18685 7.19198 5.96641 7.02945 5.80388C6.86692 5.64135 6.64648 5.55004 6.41663 5.55004C6.18677 5.55004 5.96633 5.64135 5.8038 5.80388C5.64127 5.96641 5.54996 6.18685 5.54996 6.41671V7.33337V7.38337H5.49996H3.66663Z" fill="#6D7D93" stroke="white" stroke-width="0.1"/>
</svg>
