<svg width="22" height="22" viewBox="0 0 22 22" fill="none" xmlns="http://www.w3.org/2000/svg">
<path d="M19.7084 12.8334C19.4552 12.8334 19.25 13.0386 19.25 13.2917V13.75C19.25 15.3613 18.4194 16.7784 17.1581 17.5943C16.9651 17.7191 16.8602 17.9491 16.9161 18.1721L17.2607 19.545C17.3399 19.8607 17.1012 20.1667 16.7757 20.1667H15.9738C15.7443 20.1667 15.5443 20.0106 15.4887 19.788L15.2197 18.7121C15.1641 18.4895 14.9641 18.3334 14.7347 18.3334H7.26543C7.036 18.3334 6.836 18.4895 6.78036 18.7121L6.51139 19.788C6.45574 20.0106 6.25575 20.1667 6.02632 20.1667H5.22436C4.89889 20.1667 4.66018 19.8607 4.7394 19.545L5.08387 18.1724C5.13986 17.9493 5.03473 17.7192 4.8415 17.5944C4.25629 17.2165 3.76365 16.7088 3.40307 16.1087C2.97506 15.3965 2.74929 14.581 2.75004 13.75V13.2917C2.75004 13.0386 2.54484 12.8334 2.29171 12.8334C2.03858 12.8334 1.83337 12.6282 1.83337 12.375V11.5C1.83337 11.2239 2.05723 11 2.33337 11H17.8334C18.1095 11 18.3334 10.7762 18.3334 10.5V4.58337C18.3334 4.34026 18.2368 4.1071 18.0649 3.93519C17.893 3.76328 17.6598 3.66671 17.4167 3.66671C17.0729 3.66671 16.7911 3.84203 16.6252 4.10372C16.5223 4.26606 16.5961 4.46766 16.7258 4.60953C17.0568 4.97168 17.2813 5.4242 17.3719 5.91937C17.4215 6.19101 17.1929 6.41671 16.9167 6.41671H12.4167C12.1406 6.41671 11.9121 6.19102 11.962 5.91943C12.0621 5.37493 12.3252 4.86912 12.7222 4.47216C13.2379 3.95644 13.9374 3.66671 14.6667 3.66671C14.7601 3.66671 14.8426 3.60743 14.8787 3.52131C15.2927 2.53389 16.2713 1.83337 17.4167 1.83337C18.1461 1.83337 18.8455 2.12311 19.3613 2.63883C19.877 3.15456 20.1667 3.85403 20.1667 4.58337V12.375C20.1667 12.6282 19.9615 12.8334 19.7084 12.8334ZM17.4167 13.3334C17.4167 13.0572 17.1929 12.8334 16.9167 12.8334H5.08337C4.80723 12.8334 4.58337 13.0572 4.58337 13.3334V13.75C4.58337 14.4794 4.87311 15.1789 5.38883 15.6946C5.90456 16.2103 6.60403 16.5 7.33337 16.5H14.6667C15.3961 16.5 16.0955 16.2103 16.6113 15.6946C17.127 15.1789 17.4167 14.4794 17.4167 13.75V13.3334Z" fill="#6D7D93"/>
</svg>
