<svg width="108" height="20" viewBox="0 0 108 20" fill="none" xmlns="http://www.w3.org/2000/svg">
<path d="M10 0L12.645 6.35942L19.5106 6.90983L14.2798 11.3906L15.8779 18.0902L10 14.5L4.12215 18.0902L5.72025 11.3906L0.489435 6.90983L7.35497 6.35942L10 0Z" fill="#F79D23"/>
<path d="M32 0L34.645 6.35942L41.5106 6.90983L36.2798 11.3906L37.8779 18.0902L32 14.5L26.1221 18.0902L27.7202 11.3906L22.4894 6.90983L29.355 6.35942L32 0Z" fill="#F79D23"/>
<path d="M54 0L56.645 6.35942L63.5106 6.90983L58.2798 11.3906L59.8779 18.0902L54 14.5L48.1221 18.0902L49.7202 11.3906L44.4894 6.90983L51.355 6.35942L54 0Z" fill="#F79D23"/>
<path d="M76 0L78.645 6.35942L85.5106 6.90983L80.2798 11.3906L81.8779 18.0902L76 14.5L70.1221 18.0902L71.7202 11.3906L66.4894 6.90983L73.355 6.35942L76 0Z" fill="#F79D23"/>
<path d="M98 0L100.645 6.35942L107.511 6.90983L102.28 11.3906L103.878 18.0902L98 14.5L92.1221 18.0902L93.7202 11.3906L88.4894 6.90983L95.355 6.35942L98 0Z" fill="#D4DBE1"/>
</svg>
